HIERARCHY
ROOT hip
{
	OFFSET 0.000000 0.000000 0.000000 
	CHANNELS 6 Xposition Yposition Zposition Xrotation Zrotation Yrotation
	JOINT abdomen
	{
		OFFSET 0.000000 3.402643 0.000000 
		CHANNELS 3 Xrotation Zrotation Yrotation
		JOINT chest
		{
			OFFSET 0.000000 8.438565 -0.680529 
			CHANNELS 3 Xrotation Zrotation Yrotation
			JOINT neck
			{
				OFFSET 0.000000 10.207942 -0.272212 
				CHANNELS 3 Xrotation Zrotation Yrotation
				JOINT head
				{
					OFFSET 0.000000 3.130431 0.000000 
					CHANNELS 3 Xrotation Zrotation Yrotation
					End Site
					{
						OFFSET 0.000000 3.130435 0.000000 
					}
				}
			}
			JOINT lCollar
			{
				OFFSET 3.470700 6.669187 -0.816635 
				CHANNELS 3 Yrotation Zrotation Xrotation
				JOINT lShldr
				{
					OFFSET 3.198488 0.000000 0.000000 
					CHANNELS 3 Zrotation Yrotation Xrotation
					JOINT lForeArm
					{
						OFFSET 10.139888 0.000000 0.000000 
						CHANNELS 3 Yrotation Zrotation Xrotation
						JOINT lHand
						{
							OFFSET 8.370511 0.000000 0.000000 
							CHANNELS 3 Zrotation Yrotation Xrotation
							End Site
							{
								OFFSET 4.083176 0.000000 0.000000 
							}
						}
					}
				}
			}
			JOINT rCollar
			{
				OFFSET -3.470700 6.669187 -0.816635 
				CHANNELS 3 Yrotation Zrotation Xrotation
				JOINT rShldr
				{
					OFFSET -3.198488 0.000000 0.000000 
					CHANNELS 3 Zrotation Yrotation Xrotation
					JOINT rForeArm
					{
						OFFSET -10.139888 0.000000 0.000000 
						CHANNELS 3 Yrotation Zrotation Xrotation
						JOINT rHand
						{
							OFFSET -8.370511 0.000000 0.000000 
							CHANNELS 3 Zrotation Yrotation Xrotation
							End Site
							{
								OFFSET -4.083176 0.000000 0.000000 
							}
						}
					}
				}
			}
		}
	}
	JOINT lThigh
	{
		OFFSET 5.308129 -1.633274 1.361059 
		CHANNELS 3 Xrotation Zrotation Yrotation
		JOINT lShin
		{
			OFFSET -2.041588 -20.007561 0.000000 
			CHANNELS 3 Xrotation Zrotation Yrotation
			JOINT lFoot
			{
				OFFSET 0.000000 -19.190928 -1.224953 
				CHANNELS 3 Xrotation Yrotation Zrotation
				End Site
				{
					OFFSET 0.000000 -2.449906 4.627600 
				}
			}
		}
	}
	JOINT rThigh
	{
		OFFSET -5.308129 -1.633274 1.361059 
		CHANNELS 3 Xrotation Zrotation Yrotation
		JOINT rShin
		{
			OFFSET 2.041588 -20.007561 0.000000 
			CHANNELS 3 Xrotation Zrotation Yrotation
			JOINT rFoot
			{
				OFFSET 0.000000 -19.190928 -1.224953 
				CHANNELS 3 Xrotation Yrotation Zrotation
				End Site
				{
					OFFSET 0.000000 -2.449906 4.627600 
				}
			}
		}
	}
}
MOTION
Frames: 15
Frame Time: 0.016667
-0.838387 53.309906 -0.798858 -10.913859 4.671784 11.984222 19.264551 0.219736 -1.011077 2.905052 1.503833 -0.859436 13.314036 10.463481 2.114410 22.308294 -3.762388 13.388364 -16.832008 -15.030844 -0.791078 -70.089500 4.875906 -15.852392 -50.561417 1.769336 -2.761103 -10.353104 -24.981211 -45.000000 21.126972 13.272001 -0.706817 50.910084 4.645522 2.363794 79.323799 5.000000 8.019593 6.601293 -18.999605 -24.977160 13.758992 10.565747 -5.546906 7.252181 -5.185159 -0.861187 -10.450841 6.542040 -4.504650 22.950375 -7.547658 -13.233003 -0.992950 3.406582 0.037497 -9.705082 -14.272511 3.304279 
-0.752734 53.306274 -0.713164 -11.037089 4.720907 11.906375 19.059738 0.205739 -1.088706 3.051439 1.513598 -0.898498 13.231626 10.488303 2.079732 22.122826 -4.037848 13.950918 -16.763369 -15.011340 -0.790072 -70.074974 4.846031 -15.925621 -50.653748 1.584844 -2.601109 -10.364373 -24.703100 -45.000000 21.049469 13.320774 -0.709346 51.227261 4.173946 1.830088 79.213379 5.000000 8.104749 6.995660 -18.778151 -24.575476 13.971111 10.397190 -5.593599 7.378748 -5.124476 -0.849476 -10.781119 6.612581 -4.358625 23.167604 -7.675027 -13.339154 -0.916561 3.458154 0.041437 -9.726719 -14.264491 3.292932 
-0.672866 53.302563 -0.634475 -11.154703 4.750934 11.828529 18.903284 0.228438 -1.152852 3.177976 1.503827 -0.947320 13.157898 10.484175 2.051212 21.926052 -4.264648 14.493572 -16.714260 -14.991837 -0.789066 -70.053406 4.843849 -16.010456 -50.726658 1.368770 -2.417751 -10.372707 -24.434507 -45.000000 20.981731 13.369543 -0.711874 51.538345 3.734574 1.308247 79.129120 5.000000 8.148407 7.368037 -18.597055 -24.171379 14.156891 10.261125 -5.635876 7.534922 -5.087364 -0.831414 -11.080461 6.742340 -4.226065 23.360430 -7.811255 -13.438674 -0.829181 3.560810 0.064369 -9.777898 -14.199389 3.275697 
-0.598965 53.298710 -0.563146 -11.276388 4.761845 11.750687 18.766212 0.260232 -1.213696 3.284190 1.474516 -1.015663 13.091114 10.449719 2.015788 21.729340 -4.443170 15.016198 -16.684546 -14.962582 -0.787557 -70.032867 4.845049 -16.104431 -50.789989 1.111854 -2.210372 -10.378001 -24.192785 -45.000000 20.923763 13.418312 -0.714400 51.823483 3.333217 0.804762 79.041336 5.000000 8.165088 7.723771 -18.452982 -23.759754 14.329037 10.141069 -5.675003 7.669213 -5.027263 -0.810542 -11.318781 6.851180 -4.051241 23.558968 -7.929201 -13.503044 -0.742254 3.639631 0.067889 -9.780364 -14.133540 3.297318 
-0.531009 53.295155 -0.497790 -11.388334 4.772753 11.672032 18.628792 0.306915 -1.258624 3.390591 1.454972 -1.074243 13.014947 10.424905 1.978907 21.530855 -4.620846 15.520273 -16.645065 -14.933326 -0.786048 -70.002991 4.849051 -16.197577 -50.850903 0.968102 -2.095809 -10.332483 -23.957165 -45.000000 20.855909 13.457331 -0.716422 52.102432 2.943079 0.305042 78.953949 5.000000 8.194316 8.127444 -18.296259 -23.549412 14.489326 10.036800 -5.693292 7.817277 -4.977705 -0.820066 -11.538506 6.937465 -3.921652 23.712540 -8.026473 -13.552129 -0.644388 3.697757 0.073953 -9.799390 -14.051085 3.313484 
-0.469621 53.292175 -0.438715 -11.451483 4.783658 11.594191 18.491594 0.326312 -1.313547 3.496910 1.425658 -1.152354 12.893426 10.449718 1.946004 21.311649 -4.845842 15.956423 -16.624977 -14.894320 -0.784035 -69.960648 4.836766 -16.265032 -50.881874 0.799270 -1.941592 -10.245440 -23.720942 -45.000000 20.768396 13.486600 -0.717940 52.344772 2.618958 -0.136372 78.906151 5.000000 8.217108 8.511260 -18.194769 -23.357117 14.604090 9.946557 -5.708493 7.915696 -4.948809 -0.846051 -11.735126 7.014791 -3.840504 23.836895 -8.144972 -13.606513 -0.572834 3.748938 0.077597 -9.797172 -14.000782 3.326887 
-0.415030 53.289490 -0.385970 -11.493171 4.804128 11.516353 18.354342 0.342276 -1.359188 3.593661 1.386580 -1.220938 12.772202 10.484179 1.909868 21.090662 -5.070055 16.374180 -16.595127 -14.855311 -0.782021 -69.917374 4.821261 -16.324207 -50.912487 0.602123 -1.757353 -10.161266 -23.474968 -45.000000 20.681011 13.525621 -0.719963 52.579155 2.312222 -0.579045 78.881546 5.000000 8.217702 8.870854 -18.107735 -23.140335 14.715760 9.842374 -5.698055 8.017557 -4.912153 -0.891064 -11.940010 7.143349 -3.721404 23.938601 -8.240970 -13.665629 -0.516009 3.797210 0.109934 -9.793101 -13.942960 3.356873 
-0.365945 53.286495 -0.337293 -11.568915 4.805622 11.427967 18.256029 0.364640 -1.392338 3.670580 1.357262 -1.308810 12.660058 10.499337 1.878429 20.884590 -5.264964 16.791307 -16.575045 -14.816304 -0.780008 -69.876564 4.830842 -16.394917 -50.943253 0.390716 -1.583912 -10.059758 -23.230261 -45.000000 20.613033 13.554889 -0.721480 52.797581 2.016769 -0.981974 78.860901 5.000000 8.225429 9.202991 -18.034229 -22.969538 14.847178 9.760618 -5.681446 8.093332 -4.862123 -0.894783 -12.111152 7.184592 -3.669067 24.040836 -8.329824 -13.651868 -0.449098 3.843605 0.055200 -9.827739 -13.908456 3.346983 
-0.322368 53.283127 -0.292611 -11.659101 4.788117 11.329847 18.206137 0.409386 -1.428019 3.728039 1.327943 -1.396683 12.557029 10.495192 1.848133 20.679430 -5.449663 17.198891 -16.545198 -14.777301 -0.777994 -69.827408 4.846642 -16.473919 -50.973602 0.176971 -1.416256 -9.965184 -22.971535 -45.000000 20.564585 13.584151 -0.722996 52.997864 1.753162 -1.348578 78.859138 5.000000 8.217632 9.504026 -17.973415 -22.863104 14.985732 9.703409 -5.661551 8.157458 -4.830590 -0.898635 -12.249148 7.273926 -3.583638 24.160076 -8.377870 -13.676381 -0.410139 3.868425 0.096509 -9.862117 -13.824813 3.363222 
-0.285555 53.280609 -0.254768 -11.748410 4.770425 11.240644 18.165916 0.454098 -1.463593 3.795161 1.308388 -1.484556 12.454000 10.491044 1.819617 20.487257 -5.614623 17.606644 -16.535021 -14.748045 -0.776483 -69.767937 4.862019 -16.542955 -50.993542 -0.029580 -1.255227 -9.880812 -22.731886 -45.000000 20.516140 13.613416 -0.724511 53.190567 1.489832 -1.703303 78.853127 5.000000 8.218300 9.796812 -17.928795 -22.745033 15.116814 9.657434 -5.640107 8.225681 -4.791658 -0.892294 -12.395463 7.295991 -3.531704 24.259762 -8.446449 -13.668646 -0.371115 3.931161 0.097313 -9.892702 -13.789902 3.342170 
-0.255242 53.279739 -0.224309 -11.785311 4.761971 11.172530 18.106524 0.477511 -1.527661 3.872170 1.308368 -1.572434 12.297657 10.455172 1.774689 20.300613 -5.770821 17.965010 -16.534746 -14.728541 -0.775476 -69.697151 4.873619 -16.592087 -51.022511 -0.211117 -1.106957 -9.806437 -22.508863 -45.000000 20.465223 13.626590 -0.716126 53.342072 1.312703 -1.977953 78.845261 5.000000 8.211439 10.090295 -17.934431 -22.711935 15.202852 9.607145 -5.648756 8.269827 -4.774695 -0.874997 -12.474503 7.427310 -3.449342 24.310417 -8.476158 -13.627653 -0.351731 3.951892 0.068999 -9.877242 -13.820638 3.308322 
-0.230841 53.279606 -0.200104 -11.831141 4.753345 11.113335 18.056789 0.504220 -1.600921 3.949440 1.318119 -1.660316 12.133384 10.420677 1.739271 20.125801 -5.917189 18.313786 -16.534609 -14.718789 -0.774973 -69.627205 4.879576 -16.654566 -51.041210 -0.400568 -0.952947 -9.725197 -22.288904 -45.000000 20.406628 13.626590 -0.716126 53.494282 1.142800 -2.245888 78.825020 5.000000 8.209532 10.380703 -17.942673 -22.667406 15.270486 9.587470 -5.661794 8.304534 -4.752850 -0.886688 -12.576149 7.462865 -3.426024 24.371050 -8.534497 -13.585137 -0.330867 3.992446 0.050722 -9.834150 -13.744937 3.349141 
-0.211805 53.278484 -0.181214 -11.851155 4.735442 11.034678 18.016727 0.527718 -1.664951 4.016676 1.318097 -1.757959 11.967086 10.375136 1.695809 19.960623 -6.035653 18.642239 -16.524706 -14.709036 -0.774469 -69.556740 4.900599 -16.701103 -51.059277 -0.580373 -0.799647 -9.636527 -22.089352 -45.000000 20.367565 13.626590 -0.716126 53.626831 0.996489 -2.483316 78.801971 5.000000 8.229168 10.640869 -17.981577 -22.673489 15.331673 9.540424 -5.661044 8.337442 -4.715825 -0.857757 -12.648226 7.566851 -3.378633 24.411215 -8.564114 -13.544125 -0.341934 4.030088 0.019248 -9.835589 -13.711704 3.300412 
-0.197651 53.276546 -0.167293 -11.871119 4.717521 10.956022 18.005877 0.557577 -1.716376 4.054614 1.318074 -1.865368 11.798819 10.318547 1.644298 19.782936 -6.145985 18.921209 -16.504765 -14.679781 -0.772958 -69.496750 4.922327 -16.757551 -51.086121 -0.771058 -0.622955 -9.540838 -21.907551 -45.000000 20.328377 13.616838 -0.715621 53.749214 0.873767 -2.690149 78.790863 5.000000 8.263629 10.887505 -18.055485 -22.712591 15.379325 9.500166 -5.618617 8.333241 -4.684176 -0.836550 -12.670984 7.546412 -3.410019 24.432405 -8.613761 -13.478687 -0.338948 4.060355 0.048593 -9.842319 -13.678141 3.306840 
-0.188501 53.274971 -0.157831 -11.880219 4.709324 10.867638 17.995205 0.574941 -1.761918 4.092778 1.318055 -1.972780 11.630382 10.252290 1.592507 19.612816 -6.255409 19.209932 -16.487411 -14.657507 -0.781009 -69.436813 4.944181 -16.813971 -51.102882 -0.964148 -0.451987 -9.450387 -21.723757 -45.000000 20.299078 13.616838 -0.715622 53.862919 0.743542 -2.891751 78.775833 5.000000 8.307378 11.127890 -18.131287 -22.761707 15.422494 9.448238 -5.567817 8.369218 -4.640827 -0.808031 -12.725883 7.596735 -3.402302 24.451614 -8.642394 -13.427254 -0.331548 4.071173 0.068602 -9.865632 -13.705119 3.278750 
